<mxfile host="app.diagrams.net" modified="2022-12-26T04:04:45.624Z" agent="5.0 (Windows NT 10.0; Win64; x64) AppleWebKit/537.36 (KHTML, like Gecko) Chrome/108.0.0.0 Safari/537.36" etag="2DcdpfRhLK3k1uvqBsrR" version="20.2.3" type="github">
  <diagram id="I6TFV_5f039kO9EnsUEM" name="Page-1">
    <mxGraphModel dx="1422" dy="762" grid="1" gridSize="10" guides="1" tooltips="1" connect="1" arrows="1" fold="1" page="1" pageScale="1" pageWidth="827" pageHeight="1169" math="0" shadow="0">
      <root>
        <mxCell id="0" />
        <mxCell id="1" parent="0" />
        <mxCell id="8-Tio40MnTTA8AeTwKHO-5" style="edgeStyle=orthogonalEdgeStyle;rounded=0;orthogonalLoop=1;jettySize=auto;html=1;entryX=0.5;entryY=0;entryDx=0;entryDy=0;" edge="1" parent="1" source="8-Tio40MnTTA8AeTwKHO-1">
          <mxGeometry relative="1" as="geometry">
            <mxPoint x="220" y="360" as="targetPoint" />
            <Array as="points">
              <mxPoint x="410" y="280" />
              <mxPoint x="220" y="280" />
            </Array>
          </mxGeometry>
        </mxCell>
        <mxCell id="8-Tio40MnTTA8AeTwKHO-6" style="edgeStyle=orthogonalEdgeStyle;rounded=0;orthogonalLoop=1;jettySize=auto;html=1;exitX=0.5;exitY=1;exitDx=0;exitDy=0;entryX=0.5;entryY=0;entryDx=0;entryDy=0;" edge="1" parent="1" source="8-Tio40MnTTA8AeTwKHO-1">
          <mxGeometry relative="1" as="geometry">
            <mxPoint x="622" y="360" as="targetPoint" />
            <Array as="points">
              <mxPoint x="410" y="280" />
              <mxPoint x="622" y="280" />
            </Array>
          </mxGeometry>
        </mxCell>
        <mxCell id="8-Tio40MnTTA8AeTwKHO-1" value="OpenResty&lt;br&gt;(172.16.43.181)" style="rounded=0;whiteSpace=wrap;html=1;fillColor=#ffe6cc;strokeColor=#d79b00;" vertex="1" parent="1">
          <mxGeometry x="350" y="180" width="120" height="60" as="geometry" />
        </mxCell>
        <mxCell id="8-Tio40MnTTA8AeTwKHO-8" style="edgeStyle=orthogonalEdgeStyle;rounded=0;orthogonalLoop=1;jettySize=auto;html=1;" edge="1" parent="1" source="8-Tio40MnTTA8AeTwKHO-4" target="8-Tio40MnTTA8AeTwKHO-1">
          <mxGeometry relative="1" as="geometry" />
        </mxCell>
        <mxCell id="8-Tio40MnTTA8AeTwKHO-4" value="" style="verticalLabelPosition=bottom;html=1;verticalAlign=top;align=center;shape=mxgraph.azure.user;" vertex="1" parent="1">
          <mxGeometry x="387" y="20" width="47.5" height="50" as="geometry" />
        </mxCell>
        <mxCell id="8-Tio40MnTTA8AeTwKHO-7" value="ip_hash" style="text;html=1;strokeColor=none;fillColor=none;align=center;verticalAlign=middle;whiteSpace=wrap;rounded=0;" vertex="1" parent="1">
          <mxGeometry x="410" y="240" width="60" height="30" as="geometry" />
        </mxCell>
        <mxCell id="8-Tio40MnTTA8AeTwKHO-9" value="http://172.16.43.181/kibana" style="text;html=1;strokeColor=none;fillColor=none;align=center;verticalAlign=middle;whiteSpace=wrap;rounded=0;" vertex="1" parent="1">
          <mxGeometry x="434.5" y="30" width="190" height="30" as="geometry" />
        </mxCell>
        <mxCell id="8-Tio40MnTTA8AeTwKHO-15" value="" style="group" vertex="1" connectable="0" parent="1">
          <mxGeometry x="160" y="360" width="120" height="210" as="geometry" />
        </mxCell>
        <mxCell id="8-Tio40MnTTA8AeTwKHO-10" value="" style="rounded=0;whiteSpace=wrap;html=1;" vertex="1" parent="8-Tio40MnTTA8AeTwKHO-15">
          <mxGeometry width="120" height="210" as="geometry" />
        </mxCell>
        <mxCell id="8-Tio40MnTTA8AeTwKHO-11" value="Kibana1&lt;br&gt;(port:5601)" style="ellipse;whiteSpace=wrap;html=1;fillColor=#dae8fc;strokeColor=#6c8ebf;" vertex="1" parent="8-Tio40MnTTA8AeTwKHO-15">
          <mxGeometry x="15" y="10" width="90" height="60" as="geometry" />
        </mxCell>
        <mxCell id="8-Tio40MnTTA8AeTwKHO-12" value="ElasticSearch1&lt;br&gt;(port:9200)" style="ellipse;whiteSpace=wrap;html=1;fillColor=#1ba1e2;fontColor=#ffffff;strokeColor=#006EAF;" vertex="1" parent="8-Tio40MnTTA8AeTwKHO-15">
          <mxGeometry x="15" y="110" width="90" height="60" as="geometry" />
        </mxCell>
        <mxCell id="8-Tio40MnTTA8AeTwKHO-13" style="edgeStyle=orthogonalEdgeStyle;rounded=0;orthogonalLoop=1;jettySize=auto;html=1;entryX=0.5;entryY=0;entryDx=0;entryDy=0;" edge="1" parent="8-Tio40MnTTA8AeTwKHO-15" source="8-Tio40MnTTA8AeTwKHO-11" target="8-Tio40MnTTA8AeTwKHO-12">
          <mxGeometry relative="1" as="geometry" />
        </mxCell>
        <mxCell id="8-Tio40MnTTA8AeTwKHO-14" value="(172.16.44.156)" style="text;html=1;strokeColor=none;fillColor=none;align=center;verticalAlign=middle;whiteSpace=wrap;rounded=0;" vertex="1" parent="8-Tio40MnTTA8AeTwKHO-15">
          <mxGeometry x="32" y="178" width="60" height="30" as="geometry" />
        </mxCell>
        <mxCell id="8-Tio40MnTTA8AeTwKHO-16" value="" style="group" vertex="1" connectable="0" parent="1">
          <mxGeometry x="570" y="360" width="120" height="210" as="geometry" />
        </mxCell>
        <mxCell id="8-Tio40MnTTA8AeTwKHO-17" value="" style="rounded=0;whiteSpace=wrap;html=1;" vertex="1" parent="8-Tio40MnTTA8AeTwKHO-16">
          <mxGeometry width="120" height="210" as="geometry" />
        </mxCell>
        <mxCell id="8-Tio40MnTTA8AeTwKHO-18" value="Kibana2&lt;br&gt;(port:5601)" style="ellipse;whiteSpace=wrap;html=1;fillColor=#dae8fc;strokeColor=#6c8ebf;" vertex="1" parent="8-Tio40MnTTA8AeTwKHO-16">
          <mxGeometry x="15" y="10" width="90" height="60" as="geometry" />
        </mxCell>
        <mxCell id="8-Tio40MnTTA8AeTwKHO-19" value="ElasticSearch2&lt;br&gt;(port:9200)" style="ellipse;whiteSpace=wrap;html=1;fillColor=#1ba1e2;fontColor=#ffffff;strokeColor=#006EAF;" vertex="1" parent="8-Tio40MnTTA8AeTwKHO-16">
          <mxGeometry x="15" y="110" width="90" height="60" as="geometry" />
        </mxCell>
        <mxCell id="8-Tio40MnTTA8AeTwKHO-20" style="edgeStyle=orthogonalEdgeStyle;rounded=0;orthogonalLoop=1;jettySize=auto;html=1;entryX=0.5;entryY=0;entryDx=0;entryDy=0;" edge="1" parent="8-Tio40MnTTA8AeTwKHO-16" source="8-Tio40MnTTA8AeTwKHO-18" target="8-Tio40MnTTA8AeTwKHO-19">
          <mxGeometry relative="1" as="geometry" />
        </mxCell>
        <mxCell id="8-Tio40MnTTA8AeTwKHO-21" value="(172.16.44.157)" style="text;html=1;strokeColor=none;fillColor=none;align=center;verticalAlign=middle;whiteSpace=wrap;rounded=0;" vertex="1" parent="8-Tio40MnTTA8AeTwKHO-16">
          <mxGeometry x="32" y="178" width="60" height="30" as="geometry" />
        </mxCell>
        <mxCell id="8-Tio40MnTTA8AeTwKHO-23" style="edgeStyle=orthogonalEdgeStyle;rounded=0;orthogonalLoop=1;jettySize=auto;html=1;entryX=1;entryY=0.5;entryDx=0;entryDy=0;" edge="1" parent="1" source="8-Tio40MnTTA8AeTwKHO-22" target="8-Tio40MnTTA8AeTwKHO-12">
          <mxGeometry relative="1" as="geometry" />
        </mxCell>
        <mxCell id="8-Tio40MnTTA8AeTwKHO-24" style="edgeStyle=orthogonalEdgeStyle;rounded=0;orthogonalLoop=1;jettySize=auto;html=1;" edge="1" parent="1" source="8-Tio40MnTTA8AeTwKHO-22" target="8-Tio40MnTTA8AeTwKHO-19">
          <mxGeometry relative="1" as="geometry" />
        </mxCell>
        <mxCell id="8-Tio40MnTTA8AeTwKHO-22" value="" style="triangle;whiteSpace=wrap;html=1;rotation=-90;fillColor=#1ba1e2;fontColor=#ffffff;strokeColor=#006EAF;" vertex="1" parent="1">
          <mxGeometry x="383" y="450" width="64" height="100" as="geometry" />
        </mxCell>
        <mxCell id="8-Tio40MnTTA8AeTwKHO-25" value="ES &lt;br&gt;Cluster" style="text;html=1;strokeColor=none;fillColor=none;align=center;verticalAlign=middle;whiteSpace=wrap;rounded=0;" vertex="1" parent="1">
          <mxGeometry x="385" y="491" width="60" height="30" as="geometry" />
        </mxCell>
      </root>
    </mxGraphModel>
  </diagram>
</mxfile>
